HIERARCHY
ROOT Hips
{
	OFFSET -3.958830 18.904000 13.208200
	CHANNELS 6 Xposition Yposition Zposition Zrotation Yrotation Xrotation 
	JOINT LHipJoint
	{
		OFFSET 0.000000 0.000000 0.000000
		CHANNELS 3 Zrotation Yrotation Xrotation
		JOINT LeftUpLeg
		{
			OFFSET 1.800000 -1.400000 0.085000
			CHANNELS 3 Zrotation Yrotation Xrotation
			JOINT LeftLeg
			{
				OFFSET 2.215000 -6.000000 0.000000
				CHANNELS 3 Zrotation Yrotation Xrotation
				JOINT LeftFoot
				{
					OFFSET 2.500000 -6.900000 0.000000
					CHANNELS 3 Zrotation Yrotation Xrotation
					JOINT LeftToeBase
					{
						OFFSET 0.200000 -0.500000 1.950000
						CHANNELS 3 Zrotation Yrotation Xrotation
						End Site
						{
							OFFSET 0.000000 0.000000 0.000000
						}
					}
				}
			}
		}
	}
	JOINT RHipJoint
	{
		OFFSET 0.000000 0.000000 0.000000
		CHANNELS 3 Zrotation Yrotation Xrotation
		JOINT RightUpLeg
		{
			OFFSET -1.800000 -1.400000 0.085000
			CHANNELS 3 Zrotation Yrotation Xrotation
			JOINT RightLeg
			{
				OFFSET -2.215000 -6.000000 0.000000
				CHANNELS 3 Zrotation Yrotation Xrotation
				JOINT RightFoot
				{
					OFFSET -2.500000 -6.900000 0.000000
					CHANNELS 3 Zrotation Yrotation Xrotation
					JOINT RightToeBase
					{
						OFFSET -0.200000 -0.500000 1.950000
						CHANNELS 3 Zrotation Yrotation Xrotation
						End Site
						{
							OFFSET 0.000000 0.000000 0.000000
						}
					}
				}
			}
		}
	}
	JOINT LowerBack
	{
		OFFSET 0.000000 0.000000 0.000000
		CHANNELS 3 Zrotation Yrotation Xrotation
		JOINT Spine
		{
			OFFSET -0.087000 1.940000 -0.288900
			CHANNELS 3 Zrotation Yrotation Xrotation
			JOINT Spine1
			{
				OFFSET 0.000000 1.950000 0.060000
				CHANNELS 3 Zrotation Yrotation Xrotation
				JOINT Neck
				{
					OFFSET 0.000000 0.000000 0.000000
					CHANNELS 3 Zrotation Yrotation Xrotation
					JOINT Neck1
					{
						OFFSET 0.000000 1.600000 0.340000
						CHANNELS 3 Zrotation Yrotation Xrotation
						JOINT Head
						{
							OFFSET 0.000000 1.667000 -0.240000
							CHANNELS 3 Zrotation Yrotation Xrotation
							End Site
							{
								OFFSET 0.000000 0.000000 0.000000
							}
						}
					}
				}
				JOINT LeftShoulder
				{
					OFFSET 0.000000 0.000000 0.000000
					CHANNELS 3 Zrotation Yrotation Xrotation
					JOINT LeftArm
					{
						OFFSET 2.700000 1.550000 -0.730000
						CHANNELS 3 Zrotation Yrotation Xrotation
						JOINT LeftForeArm
						{
							OFFSET 5.450000 0.000000 0.000000
							CHANNELS 3 Zrotation Yrotation Xrotation
							JOINT LeftHand
							{
								OFFSET 3.450000 0.000000 0.000000
								CHANNELS 3 Zrotation Yrotation Xrotation
								JOINT LeftHandIndex1
								{
									OFFSET 0.750000 0.000000 0.000000
									CHANNELS 3 Zrotation Yrotation Xrotation
									End Site
									{
										OFFSET 0.000000 0.000000 0.000000
									}
								}
							}
						}
					}
				}
				JOINT RightShoulder
				{
					OFFSET 0.000000 0.000000 0.000000
					CHANNELS 3 Zrotation Yrotation Xrotation
					JOINT RightArm
					{
						OFFSET -2.700000 1.550000 -0.730000
						CHANNELS 3 Zrotation Yrotation Xrotation
						JOINT RightForeArm
						{
							OFFSET -5.450000 0.000000 0.000000
							CHANNELS 3 Zrotation Yrotation Xrotation
							JOINT RightHand
							{
								OFFSET -3.450000 0.000000 0.000000
								CHANNELS 3 Zrotation Yrotation Xrotation
								JOINT RightHandIndex1
								{
									OFFSET -0.750000 0.000000 0.000000
									CHANNELS 3 Zrotation Yrotation Xrotation
									End Site
									{
										OFFSET 0.000000 0.000000 0.000000
									}
								}
							}
						}
					}
				}
			}
		}
	}
}
MOTION
Frames: 14
Frame Time: 0.016667
-3.446850 16.842350 7.385720 -139.304413 -83.049446 137.318139 -15.664480 13.715955 2.989372 4.874225 2.401104 11.523383 -6.068819 7.654507 9.826612 1.304819 5.262384 2.449531 -1.196300 -0.260980 -0.827460 17.941051 -9.097365 4.066044 10.515213 6.444055 -24.792369 11.807212 -1.265505 1.373589 0.183904 -0.510857 2.787777 -0.178890 0.998280 -0.650440 -2.980994 -3.618881 -8.350112 6.593587 -2.959763 5.082484 4.614800 -3.659959 12.983718 -1.511970 8.052843 -17.425608 20.367036 30.281352 41.981930 79.481350 -1.760320 14.218740 -50.816243 -32.377208 22.369119 -27.164419 -2.240061 1.847306 -99.993206 -74.782587 70.916667 -3.895645 1.961225 -0.332120 -0.640110 0.238940 -0.476150 53.277161 26.443149 15.136381 18.995727 3.901017 -3.577279 117.720356 67.486474 85.570337 4.693786 0.306427 -0.370560 0.990290 0.742310 1.088640 
-3.593960 16.813840 7.379910 -138.496694 -83.554590 136.661069 -15.684958 13.727894 2.931198 4.924408 2.369022 11.579586 -5.740563 7.831555 11.255484 1.317166 5.330777 2.394628 -1.225000 -0.273710 -0.913030 17.924598 -9.148111 4.015622 10.405485 6.492731 -25.400371 11.230873 -1.514117 3.611825 0.223283 -0.502632 2.763969 -0.170590 1.015380 -0.650730 -3.042896 -3.445261 -8.204254 6.204699 -3.027810 4.460122 4.598696 -3.687991 12.086550 -1.527739 8.272244 -16.624330 20.661638 30.750732 40.187111 80.798120 -2.857250 14.442550 -50.088643 -31.316599 21.409298 -26.314268 0.581673 1.342547 -101.994907 -72.142052 71.215540 -3.811016 2.325596 -0.352860 -0.653030 0.223900 -0.465780 52.741969 24.700285 14.392329 18.556663 2.606226 -3.608554 113.049765 68.910162 80.136711 4.856113 0.459355 -0.370360 0.970030 0.770100 1.126510 
-3.749030 16.796900 7.375140 -136.597672 -83.775326 134.831913 -15.694038 13.769575 2.859581 5.037472 2.315149 11.584225 -5.091295 7.996925 13.130320 1.314140 5.421180 2.321294 -1.265730 -0.299080 -0.992160 17.913150 -9.191060 3.980049 10.216856 6.572130 -25.658464 11.254467 -1.855586 5.920923 0.246355 -0.574119 2.701174 -0.170160 1.033170 -0.643800 -3.206602 -3.217601 -8.080304 6.535653 -3.002916 3.936140 4.365138 -3.670532 11.325047 -1.518276 8.570092 -16.096298 21.112989 31.206947 38.441995 82.294930 -3.696220 14.386550 -49.600739 -30.338572 20.825126 -25.288506 3.252309 1.343703 -102.097088 -69.970239 69.269991 -3.707919 2.690381 -0.356360 -0.667070 0.222620 -0.467090 52.257878 23.021877 13.910534 18.521760 1.470750 -3.704330 108.231915 71.304686 75.112006 5.077893 0.759581 -0.378680 0.951660 0.805030 1.164410 
-3.900710 16.788790 7.360280 -135.937498 -84.079034 134.494526 -15.731329 13.792420 2.777585 5.124077 2.311137 11.165652 -4.653193 8.132872 14.836878 1.290750 5.469237 2.248167 -1.249250 -0.261460 -1.070630 17.878264 -9.224990 3.971268 10.108076 6.894559 -26.325918 10.875534 -2.128004 8.516066 0.258273 -0.647688 2.647562 -0.132200 1.030080 -0.615240 -3.270027 -2.998180 -7.952165 6.175975 -2.779304 3.341001 4.685434 -3.475011 10.386519 -1.574113 8.753898 -15.410421 21.451802 32.095403 36.386907 84.141020 -4.334480 13.925820 -48.816449 -28.572306 19.758019 -24.225495 5.673666 1.788281 -99.322207 -66.522513 63.266446 -3.529276 3.206694 -0.349580 -0.680780 0.230730 -0.451250 51.843394 20.414735 13.478008 18.561842 1.315447 -2.379178 99.808200 75.769036 67.257285 5.310788 0.965393 -0.359850 0.910860 0.822220 1.196720 
-4.059100 16.780530 7.341360 -134.494577 -84.725407 133.338858 -15.769870 13.798885 2.687255 5.076740 2.364138 10.830531 -4.087891 8.184970 16.407941 1.262986 5.521457 2.172478 -1.217560 -0.211210 -1.167560 17.849037 -9.255698 3.922509 9.305675 7.055058 -26.788702 11.315265 -2.498165 10.698626 0.260510 -0.834555 2.565402 -0.082890 1.040430 -0.568690 -3.354946 -2.729925 -7.775953 5.493500 -2.516330 2.452897 5.144412 -3.407106 10.503220 -2.136636 8.832618 -15.123087 21.392878 32.922951 33.889311 85.865190 -5.072170 13.330680 -47.064012 -27.197201 18.667536 -24.402063 7.929795 1.138240 -97.003341 -63.025498 57.719166 -3.414890 3.512409 -0.340400 -0.682840 0.236330 -0.415910 51.338372 18.061849 13.853078 19.075543 1.245412 -1.048677 81.922928 81.234643 53.771166 4.424027 -0.732171 -0.335720 0.860980 0.833560 1.241020 
-4.219540 16.782130 7.311220 -134.414924 -85.491612 133.412435 -15.809760 13.823437 2.600721 4.914228 2.392508 10.204599 -3.469424 8.303192 18.726440 1.237366 5.557271 2.056845 -1.102420 -0.052570 -1.177160 17.810952 -9.318150 3.868779 8.473011 7.035740 -26.902598 11.607026 -2.833797 12.571757 0.217278 -1.017218 2.454848 0.008390 0.970910 -0.492450 -3.294013 -2.622076 -7.593150 4.187341 -2.225830 1.722873 6.158002 -3.278976 10.075912 -2.744400 8.880893 -14.564386 21.424768 34.064882 31.919667 88.415180 -4.738990 11.938370 -45.355815 -25.517956 17.836399 -24.949603 10.365146 0.076800 -92.220899 -59.412700 50.145136 -3.253656 3.738955 -0.293630 -0.718280 0.320990 -0.394120 51.145824 16.642786 12.907847 20.209830 -0.409939 -3.960658 71.441841 78.688915 44.877653 3.514267 -1.986823 -0.266280 0.764940 0.781530 1.275680 
-4.381280 16.789920 7.292820 -137.135531 -85.793017 136.218618 -15.867324 13.830868 2.509708 4.446616 2.426607 9.661218 -2.176562 8.162466 21.064601 1.212389 5.557774 1.973238 -0.997370 0.093190 -1.167340 17.756642 -9.394106 3.807234 7.466716 6.941330 -26.681706 12.582112 -3.315190 14.168611 0.161424 -1.275833 2.330707 0.086080 0.908430 -0.431250 -3.401666 -2.397930 -7.419158 3.632404 -1.755220 1.065690 6.478659 -2.976963 9.437573 -3.052889 9.338114 -13.801387 22.095572 34.668137 30.265679 90.355000 -4.295310 10.833410 -44.086738 -23.721244 16.835549 -24.769289 12.335675 -0.970017 -85.058686 -55.056920 41.129722 -3.096139 3.888287 -0.250230 -0.743680 0.397760 -0.375580 50.667443 14.846508 11.705396 22.353808 -1.599658 -6.950400 63.607039 75.697434 37.511477 3.188431 -2.270002 -0.207680 0.685050 0.723370 1.301010 
-4.544810 16.816550 7.272540 -142.413639 -85.716722 141.290564 -15.926333 13.838361 2.447717 4.109756 2.541502 9.148774 -1.018879 8.138130 23.719658 1.203566 5.619641 1.874640 -0.850790 0.256830 -1.084760 17.683772 -9.535292 3.776199 7.045402 6.797380 -25.836752 12.711369 -3.592247 15.336086 0.076230 -1.450441 2.244796 0.158070 0.803940 -0.355200 -3.488534 -2.202648 -7.331013 3.295399 -1.214413 0.894039 6.669366 -2.398872 8.275033 -3.031564 9.606956 -12.851691 22.664432 34.773480 29.890088 92.443790 -3.510160 9.318080 -44.285390 -21.655046 16.292753 -23.503966 15.185262 -1.297840 -83.051593 -53.235218 38.134115 -2.988449 3.973162 -0.173660 -0.782760 0.507810 -0.357540 51.134203 13.282458 10.616294 21.127563 -2.239387 -9.460269 55.074184 71.838026 29.913594 3.038113 -2.348935 -0.133890 0.593450 0.636110 1.290580 
-4.705510 16.847430 7.245610 -146.456289 -85.671013 145.090250 -15.964066 13.860860 2.400593 3.876274 2.587623 8.199019 -0.067007 8.228805 26.651097 1.200869 5.714389 1.760036 -0.734250 0.400020 -0.995540 17.617853 -9.701516 3.758770 6.544558 6.578546 -24.916044 12.892398 -3.872584 16.296288 0.000358 -1.616766 2.162223 0.212300 0.696640 -0.297450 -3.505319 -2.038699 -7.295581 2.816471 -0.603804 0.977850 6.809353 -1.683474 7.120634 -2.922442 10.013785 -12.310799 23.696899 34.750852 29.878445 94.674460 -2.632180 8.203320 -45.018480 -20.185445 15.927170 -20.800959 18.440848 -1.305882 -81.654519 -50.636127 34.967833 -2.858609 4.044349 -0.092420 -0.820960 0.619630 -0.363350 51.895510 12.177502 10.189452 20.600308 -3.631891 -11.873276 49.806295 69.641614 24.585584 2.865892 -2.466186 -0.075240 0.503820 0.551240 1.274960 
-4.858020 16.872130 7.219280 -150.285503 -85.843130 148.803260 -15.987428 13.870422 2.347273 3.480138 2.520374 6.564522 0.776055 8.460496 30.292274 1.253826 5.889311 1.625390 -0.645010 0.537410 -0.921290 17.568765 -9.878829 3.718187 5.991912 6.136517 -23.931810 12.989298 -4.031642 16.633696 -0.061528 -1.721871 2.083700 0.259170 0.604380 -0.258880 -3.463144 -1.925892 -7.224733 1.920488 -0.203122 0.975997 7.176851 -1.136211 5.993354 -2.885890 10.311801 -11.642689 24.323986 34.870589 29.445660 96.589780 -1.773380 7.383180 -45.612829 -18.767981 15.779416 -19.788157 20.853959 -1.519714 -80.922277 -49.571684 33.306446 -2.754665 4.096605 -0.055570 -0.863800 0.722490 -0.371490 52.758567 11.152165 9.526613 20.167171 -4.493393 -13.912326 43.533074 66.699777 18.919520 2.898770 -2.436997 -0.011870 0.428140 0.469920 1.286370 
-5.003020 16.886500 7.191880 -151.749247 -86.439841 150.277748 -15.997095 13.892355 2.296788 3.048415 2.207742 4.133181 1.695004 8.726863 34.706741 1.278713 6.225518 1.432476 -0.538170 0.676810 -0.860380 17.536420 -10.022506 3.660852 5.338677 5.605701 -23.053796 13.086635 -4.177001 16.697734 -0.116704 -1.822138 2.021859 0.333520 0.530480 -0.207910 -3.435262 -1.821980 -7.135660 1.025988 0.185278 0.952180 7.608954 -0.575069 4.883039 -3.007672 10.210585 -10.863784 23.965371 35.731502 28.387473 97.931830 -0.506960 6.353370 -45.423828 -17.121581 15.571330 -20.309463 22.972008 -2.365150 -78.643909 -50.498045 32.042669 -2.664310 4.128825 0.000130 -0.895820 0.821820 -0.347330 53.173155 10.057403 8.614635 20.063511 -5.358950 -15.357929 37.633558 63.887808 14.266982 2.980063 -2.353584 0.027550 0.372030 0.390770 1.296990 
-5.140130 16.899370 7.177320 -150.283658 -87.330458 148.783558 -16.003101 13.922564 2.295102 2.470018 1.644723 1.024427 2.846267 9.109820 40.480496 1.377248 6.807726 1.182113 -0.415030 0.814120 -0.752950 17.505928 -10.137700 3.581276 4.616068 4.922316 -21.963649 13.051565 -4.266395 16.418270 -0.178616 -1.881375 1.985921 0.387260 0.441880 -0.162620 -3.477045 -1.643148 -7.089631 0.485073 0.466924 1.183579 7.767278 -0.121755 3.916346 -3.254743 10.037200 -10.232239 23.494540 36.124813 27.732392 98.607210 0.787600 5.183120 -44.598312 -15.763190 15.374130 -21.382858 24.505900 -3.486358 -76.525224 -50.498252 30.327795 -2.599936 4.136090 0.050970 -0.930070 0.910240 -0.339030 53.053530 9.153258 7.547710 20.311435 -5.567318 -16.161830 31.745716 61.243211 10.536340 3.149538 -2.211517 0.084070 0.310110 0.298600 1.287790 
-5.275150 16.913210 7.159660 -151.280198 -87.961142 149.792161 -15.997355 13.847030 2.366177 1.891961 0.763955 -2.862234 3.644688 9.855923 47.253358 1.529843 7.641723 0.828963 -0.258690 1.001750 -0.579110 17.494711 -10.244521 3.504683 3.995289 4.166552 -20.676894 13.262373 -4.329103 15.533588 -0.267481 -1.918469 1.922641 0.457170 0.312100 -0.103750 -3.412053 -1.553023 -7.119046 -0.315973 1.058940 1.479134 8.539760 0.688728 2.998219 -3.583932 9.685445 -9.844289 22.980895 36.822105 27.376374 99.608660 3.136270 3.994480 -43.741257 -14.903909 15.077212 -23.058587 25.178487 -4.881227 -73.303095 -49.045933 27.152147 -2.509555 4.123663 0.125080 -0.982500 1.049000 -0.351410 53.165419 8.795721 7.172400 20.369964 -7.021737 -17.817387 26.510117 59.414083 6.851057 3.220022 -2.203408 0.153820 0.224300 0.170090 1.274210 
-5.401590 16.913250 7.137570 -149.045644 -88.223707 147.729034 -16.007523 13.709096 2.489166 1.859312 -0.331253 -7.153931 4.167926 11.037242 54.576560 1.734616 8.771182 0.416232 -0.136490 1.148310 -0.474520 17.496857 -10.236648 3.408348 3.715897 3.586347 -19.601231 13.446063 -4.372752 14.798505 -0.325486 -1.969325 1.888124 0.524870 0.234050 -0.064760 -3.498642 -1.321756 -7.195120 -0.491756 1.642013 1.774048 8.603947 1.347213 2.670871 -3.919149 9.279934 -9.770880 22.010215 37.750046 26.247994 99.780420 4.780600 3.171810 -42.307717 -14.788917 15.022540 -25.136593 25.513489 -6.571969 -69.762486 -47.793582 24.054264 -2.444538 4.097248 0.175800 -1.012580 1.138640 -0.335640 52.422696 8.998031 6.716599 21.560789 -7.203149 -18.603012 20.011967 56.679172 3.522278 3.431511 -2.025594 0.194940 0.171280 0.068710 1.277340 
